<?xml version="1.0" encoding="utf-8"?>
<!-- Generator: Adobe Illustrator 22.0.1, SVG Export Plug-In . SVG Version: 6.00 Build 0)  -->
<svg version="1.1" id="Layer_1" xmlns="http://www.w3.org/2000/svg" xmlns:xlink="http://www.w3.org/1999/xlink" x="0px" y="0px"
	 viewBox="0 0 60 60" style="enable-background:new 0 0 60 60;" xml:space="preserve">
<g>
	<g>
		<path style="fill:#FFFFFF;" d="M51,16.3c0,0.2,0,0.3-0.1,0.5c-0.1,0.3-0.5,0.9-1.7,0.9l-4.9,0c-0.9,0-1.6,0.7-1.6,1.6l0,15.5
			c0,1.6-1.3,2.9-2.9,2.9l-7.6,0c-0.8,0-1.5-0.3-2-0.8c-0.5-0.5-0.8-1.3-0.8-2l0-15.5c0-0.9-0.7-1.6-1.6-1.6l-5.3,0
			c-1.2,0-1.6-0.5-1.7-0.9c-0.1-0.1-0.1-0.3-0.1-0.5c0-0.4,0.2-0.9,0.7-1.4L33.8,2.4c1.1-1.1,2.9-1.1,4.1,0l12.5,12.5
			C50.8,15.4,51,15.8,51,16.3z M41.4,19.2c0-1.6,1.3-2.9,2.9-2.9l5.6,0l-13-13c-0.6-0.6-1.6-0.6-2.3,0l-13,13l6,0
			c1.6,0,2.9,1.3,2.9,2.9l0,15.5c0,0.4,0.2,0.8,0.5,1.1c0.3,0.3,0.7,0.5,1.1,0.5l7.6,0c0.9,0,1.6-0.7,1.6-1.6L41.4,19.2L41.4,19.2z"
			/>
	</g>
	<g>
		<path style="fill:#FFFFFF;" d="M42.1,43.7c0,0.7-0.3,1.3-0.9,1.9L28.7,58.1c-0.7,0.7-1.6,1.1-2.6,1.1c-1,0-1.9-0.4-2.6-1.1
			L11,45.7c-0.6-0.6-0.9-1.3-0.9-1.9c0-0.3,0.1-0.6,0.1-0.8c0.2-0.4,0.7-1.3,2.4-1.3h4.9c0.2,0,0.4-0.1,0.6-0.2
			c0.2-0.2,0.2-0.3,0.2-0.6l0-15.6c0-1,0.4-1.9,1.1-2.6c0.6-0.6,1.4-1,2.3-1.1v1.3c-0.5,0.1-1,0.3-1.4,0.7c-0.5,0.5-0.7,1-0.7,1.6
			c0,0,0,0.1,0,0.1l0,15.5l0,0.1c0,0.5-0.2,1-0.6,1.4c-0.4,0.4-0.9,0.6-1.5,0.6h-4.9c-0.7,0-1.1,0.2-1.3,0.6c0,0.1-0.1,0.2-0.1,0.3
			c0,0.3,0.2,0.7,0.5,1l12.5,12.5c0.5,0.5,1.1,0.7,1.7,0.7c0.6,0,1.2-0.2,1.7-0.7l12.5-12.5c0.4-0.4,0.5-0.7,0.5-1
			c0-0.1,0-0.2-0.1-0.3c-0.2-0.4-0.6-0.6-1.3-0.6l-4.9,0l0-1.3l5,0c1.7,0,2.3,0.9,2.4,1.3C42,43.2,42.1,43.4,42.1,43.7z"/>
	</g>
</g>
</svg>
