<?xml version="1.0" encoding="utf-8"?>
<!-- Generator: Adobe Illustrator 22.0.1, SVG Export Plug-In . SVG Version: 6.00 Build 0)  -->
<svg version="1.1" id="Layer_1" xmlns="http://www.w3.org/2000/svg" xmlns:xlink="http://www.w3.org/1999/xlink" x="0px" y="0px"
	 viewBox="0 0 60 60" style="enable-background:new 0 0 60 60;" xml:space="preserve">
<style type="text/css">
	.st0{fill:#FFFFFF;}
	.st1{fill:#4A6270;}
	.st2{fill:#495E69;}
</style>
<g>
	<g>
		<g>
			<path class="st0" d="M30.6,21.6c2.9,0,5.5,1,7.6,2.6l3.3-2.4c-2.9-2.5-6.7-4.1-10.9-4.1c-4.2,0-8,1.6-10.9,4.1l3.3,2.4
				C25.1,22.6,27.7,21.6,30.6,21.6z"/>
			<path class="st0" d="M30.6,13.4c5.6,0,10.6,2.2,14.3,5.8l3.2-2.4c-4.5-4.5-10.7-7.4-17.6-7.4S17.5,12.3,13,16.8l3.2,2.4
				C20,15.6,25,13.4,30.6,13.4z"/>
			<path class="st0" d="M30.6,5.6c8.2,0,15.6,3.4,20.8,8.9l3.2-2.4c-6-6.4-14.5-10.4-24-10.4s-18,4-24,10.4l3.2,2.4
				C15,9,22.4,5.6,30.6,5.6z"/>
		</g>
		<path class="st0" d="M33.1,25.9c-0.8-0.2-1.6-0.2-2.5-0.2c-7,0-12.7,5.6-12.7,12.6c0,4.6,2.6,8.7,6.3,10.9c0.1,0,0.1,0.1,0.1,0.1
			c0.7,0.4,1.2,1.2,1.2,2.1c0,0.2,0,0.5-0.1,0.7c0,0,0,0,0,0.1l-1.4,4.7l0,0c0,0.1,0,0.1,0,0.2c0,0.3,0.3,0.6,0.6,0.6
			c0.1,0,0.3,0,0.4-0.1l0,0l12.5-8.8c3.4-2.2,5.7-6.1,5.7-10.5C43.3,32.2,38.9,27.1,33.1,25.9z"/>
	</g>
</g>
<g>
	<g>
		<rect x="1.3" y="54.4" class="st1" width="57.1" height="3.2"/>
	</g>
	<g>
		<path class="st1" d="M52.1,10.3h-1.4c0.1,0.5,0.1,1,0.1,1.5c0,0.6,0,1.2-0.1,1.7h1.5c1.8,0,3.2,1.4,3.2,3.2v27.6
			c0,1.8-1.4,3.2-3.2,3.2H7.7c-1.8,0-3.2-1.4-3.2-3.2V16.6c0-1.8,1.4-3.2,3.2-3.2h16.6c-0.1-0.6-0.1-1.1-0.1-1.7c0-0.5,0-1,0.1-1.5
			H7.7c-3.5,0-6.4,2.9-6.4,6.4v27.6c0,3.5,2.9,6.4,6.4,6.4h44.4c3.5,0,6.4-2.9,6.4-6.4V16.6C58.5,13.1,55.6,10.3,52.1,10.3z"/>
	</g>
	<path class="st2" d="M39.4,1.8c-0.6-0.1-1.3-0.2-2-0.2c-5.6,0-10.1,4.5-10.1,10.1c0,3.7,2,7,5.1,8.8c0,0,0.1,0,0.1,0.1
		c0.6,0.4,1,1,1,1.7c0,0.2,0,0.4-0.1,0.6c0,0,0,0,0,0l-1.1,3.8l0,0c0,0,0,0.1,0,0.1c0,0.3,0.2,0.5,0.5,0.5c0.1,0,0.2,0,0.3-0.1l0,0
		l10-7.1c2.7-1.8,4.5-4.9,4.5-8.4C47.6,6.8,44.1,2.7,39.4,1.8z"/>
</g>
</svg>
