<?xml version="1.0" encoding="utf-8"?>
<!-- Generator: Adobe Illustrator 22.0.1, SVG Export Plug-In . SVG Version: 6.00 Build 0)  -->
<svg version="1.1" id="Layer_1" xmlns="http://www.w3.org/2000/svg" xmlns:xlink="http://www.w3.org/1999/xlink" x="0px" y="0px"
	 viewBox="0 0 60 60" style="enable-background:new 0 0 60 60;" xml:space="preserve">
<g>
	<g>
		<g>
			<path style="fill:#4A6270;" d="M37.2,58.9L37.2,58.9c-0.8,0-1.4-0.2-1.7-0.3c-6.7-2.3-13.4-8.3-19.9-17.9
				c-0.2-0.3-0.3-0.5-0.4-0.6c0,0,0-0.1-0.1-0.1c0-0.1-0.1-0.2-0.2-0.4C8.4,30.2,5,21.5,5.3,14.4c0-0.7,0.2-3.1,3.3-5
				c1.5-1,5.3-3.3,7.3-3.3c0.1,0,0.3,0,0.4,0c1.1,0.1,2.5,0.8,3.3,2.5l3.8,8.9c0.6,1.1,1,3.2-0.7,5.3l-2.8,3.4
				c0.9,1.7,2.8,5.1,4.5,7.3c0,0,0.1,0.1,0.1,0.1c0,0,0,0.1,0.1,0.1c0,0,0,0,0,0.1c0,0,0.1,0.1,0.1,0.1c1.5,2.3,3.9,5.4,5.2,6.8
				l4.1-1.4c0.6-0.2,1.1-0.3,1.7-0.3c1.9,0,3.1,1.1,3.5,1.6l6.9,6.7c1.5,1.6,1.4,3.3,1.1,4.1c-0.5,1.7-3.4,4.1-5.8,5.8
				C39.6,58.6,38.1,58.9,37.2,58.9z M36.9,55.3c0,0,0.1,0,0.2,0l0,0c0.3,0,1-0.1,2-0.9c2.1-1.6,4.2-3.4,4.5-4.1c0,0,0,0,0-0.1
				c0,0,0-0.2-0.3-0.5l-6.9-6.7c-0.1-0.1-0.1-0.1-0.2-0.2l0,0c0,0-0.5-0.4-1.3-0.2l-5.3,1.8c-0.7,0.2-1.4,0-1.9-0.5
				c-0.2-0.2-4.1-4.8-6.3-8.2c0,0,0,0,0,0c0,0,0,0,0,0c-2.4-3.3-5.3-8.7-5.4-8.9c-0.3-0.6-0.3-1.4,0.2-2l3.5-4.3
				c0.6-0.7,0.3-1.3,0.3-1.3c0-0.1-0.1-0.2-0.1-0.2l-3.8-8.9C16.1,9.8,16,9.7,16,9.7c0,0-0.1,0-0.1,0c-0.7,0.1-3.2,1.4-5.3,2.7
				c-1.4,0.8-1.6,1.6-1.6,1.8c0,0.1,0,0.1,0,0.2c-0.3,6.2,2.9,14.5,9,23.2c0.1,0.2,0.2,0.3,0.3,0.4c0.1,0.1,0.2,0.3,0.4,0.6
				c7.6,11.2,14,15.2,18.1,16.6C36.9,55.3,36.8,55.2,36.9,55.3L36.9,55.3z"/>
		</g>
	</g>
	<path style="fill:#495E69;" d="M46.1,1.1c-0.7-0.1-1.5-0.2-2.2-0.2c-6.3,0-11.4,5.1-11.4,11.4c0,4.2,2.3,7.9,5.7,9.9
		c0,0,0.1,0,0.1,0.1c0.7,0.4,1.1,1.1,1.1,1.9c0,0.2,0,0.4-0.1,0.6c0,0,0,0,0,0l-1.2,4.3l0,0c0,0.1,0,0.1,0,0.2
		c0,0.3,0.3,0.6,0.6,0.6c0.1,0,0.2,0,0.3-0.1l0,0l11.2-8c3.1-2,5.1-5.5,5.1-9.5C55.3,6.8,51.4,2.1,46.1,1.1z"/>
</g>
</svg>
