<?xml version="1.0" encoding="utf-8"?>
<!-- Generator: Adobe Illustrator 22.0.1, SVG Export Plug-In . SVG Version: 6.00 Build 0)  -->
<svg version="1.1" id="Layer_1" xmlns="http://www.w3.org/2000/svg" xmlns:xlink="http://www.w3.org/1999/xlink" x="0px" y="0px"
	 viewBox="0 0 39 224.5" style="enable-background:new 0 0 39 224.5;" xml:space="preserve">
<style type="text/css">
	.st0{fill:#FFFFFF;}
</style>
<path class="st0" d="M0,92.4c0,14.1,0,17.7,0,19.2c0,0.5,0,0.7,0,1.4c0,1.4,0,5.1,0,19.2c1.4,37.2,39,26.2,39,92.4V112.9v-1.4V0
	C39,66.2,1.4,55.2,0,92.4z M25.6,113.9l-13.1,17.9c-0.7,0.9-1.2,0.2-1.2-1.6V94.3c0-1.8,0.5-2.5,1.2-1.6l13.1,17.8
	C26.2,111.5,26.2,113,25.6,113.9z"/>
</svg>
