<?xml version="1.0" encoding="utf-8"?>
<!-- Generator: Adobe Illustrator 22.0.1, SVG Export Plug-In . SVG Version: 6.00 Build 0)  -->
<svg version="1.1" id="Layer_1" xmlns="http://www.w3.org/2000/svg" xmlns:xlink="http://www.w3.org/1999/xlink" x="0px" y="0px"
	 viewBox="0 0 101.8 60" style="enable-background:new 0 0 101.8 60;" xml:space="preserve">
<style type="text/css">
	.st0{fill:#FFFFFF;}
</style>
<g>
	<g>
		<g>
			<path class="st0" d="M1.9,58.6V47.5c1.3-0.7,2.7-1.1,4.1-1.1c1.5,0,2.7,0.5,3.6,1.4c0.9-0.9,2-1.4,3.4-1.4c1.4,0,2.4,0.3,3.3,1
				c0.8,0.7,1.2,1.7,1.2,3v8.2h-1.9v-8.3c0-0.8-0.3-1.3-0.8-1.7c-0.5-0.3-1.1-0.5-1.9-0.5c-0.6,0-1.2,0.2-1.7,0.5
				c-0.5,0.3-0.8,0.7-0.8,1.2v8.8H8.7V50c0-0.6-0.3-1.1-0.8-1.4c-0.5-0.3-1.2-0.5-2-0.5c-0.9,0-1.6,0.2-2.2,0.6v10H1.9z"/>
			<path class="st0" d="M19.9,43.3c0-0.4,0.1-0.7,0.4-0.9c0.3-0.2,0.6-0.4,0.9-0.4c0.4,0,0.7,0.1,0.9,0.4c0.2,0.2,0.4,0.6,0.4,0.9
				c0,0.4-0.1,0.7-0.4,0.9c-0.2,0.3-0.6,0.4-0.9,0.4c-0.4,0-0.7-0.1-0.9-0.4C20,44,19.9,43.6,19.9,43.3z M20.3,46.6h1.9v12h-1.9
				V46.6z"/>
			<path class="st0" d="M38.5,48.8l-1.5,0.9c-0.4-0.6-0.8-0.9-1.2-1.1c-0.5-0.2-1-0.3-1.6-0.3c-0.8,0-1.4,0.2-2,0.6
				c-0.5,0.4-0.8,0.9-0.8,1.6v4.5c0,0.7,0.3,1.2,0.8,1.6c0.5,0.4,1.2,0.6,2,0.6c1.5,0,2.5-0.6,3-1.9l1.5,0.7
				c-0.3,0.9-0.9,1.7-1.7,2.2c-0.8,0.5-1.8,0.8-2.7,0.8c-1.2,0-2.3-0.4-3.2-1.1c-0.9-0.7-1.4-1.7-1.4-2.9v-4.4
				c0-1.3,0.5-2.2,1.4-2.9c0.9-0.7,2-1.1,3.2-1.1c0.9,0,1.7,0.2,2.4,0.5C37.3,47.3,38,47.9,38.5,48.8z"/>
			<path class="st0" d="M40.7,58.6V47.4c1.9-0.7,3.5-1,4.7-1c1.2,0,2.3,0.4,3.2,1.1c0.9,0.7,1.3,1.6,1.3,2.9v8.3H48v-8.3
				c0-0.7-0.3-1.2-0.8-1.6c-0.5-0.4-1.2-0.6-1.9-0.6c-0.9,0-1.9,0.2-2.8,0.5v10H40.7z"/>
			<path class="st0" d="M57.5,57.2v1.6c-0.3,0-0.6,0-0.7,0c-1.2,0-2.2-0.4-3-1.1c-0.8-0.7-1.2-1.7-1.2-2.9V43.6h1.8v3h2.5v1.7h-2.5
				v6.6c0,0.7,0.3,1.3,0.9,1.8C55.9,57.2,56.6,57.4,57.5,57.2z"/>
		</g>
		<g>
			<g>
				<g>
					<path class="st0" d="M83.2,43.3c-0.2,0.4-0.4,0.8-0.6,1.1c-0.4,0.6-0.9,1.1-1.6,1.5c-0.5,0.3-1,0.6-1.6,0.8V59h-3V47v-2.9h1.2
						c0.5,0,0.9-0.1,1.4-0.3c0.2-0.1,0.5-0.3,0.7-0.5c0.6-0.5,1-1.3,1-2.2v-0.7v-9.8c0-1.6-1.4-3-3-3h-8.2c-1.7,0-3,1.3-3,3v10.5
						c0,1.2,0.7,2.1,1.7,2.6c0.4,0.2,0.9,0.3,1.4,0.3h1.2V47v12h-3V46.7c-0.6-0.2-1.1-0.4-1.6-0.8c-0.6-0.4-1.1-0.9-1.6-1.5
						c-0.7-0.9-1.1-2.1-1.1-3.3V30.5c0-1.2,0.4-2.4,1.1-3.3c0.4-0.6,0.9-1.1,1.5-1.5c1-0.7,2.1-1,3.4-1h8.2c1.3,0,2.4,0.4,3.4,1
						c0.6,0.4,1.1,0.9,1.5,1.5c0.7,1,1.1,2.1,1.1,3.3v9.8C83.6,40.4,83.8,42.1,83.2,43.3z"/>
					<path class="st0" d="M73.5,22.2c3.7,0,6.8-3,6.8-6.6c0-3.7-3-6.6-6.8-6.6c-3.7,0-6.8,3-6.8,6.6C66.7,19.2,69.8,22.2,73.5,22.2z
						 M73.5,11.8c2.1,0,3.8,1.7,3.8,3.7c0,2.1-1.7,3.7-3.8,3.7c-2.1,0-3.8-1.7-3.8-3.7C69.7,13.5,71.4,11.8,73.5,11.8z"/>
				</g>
			</g>
			<path class="st0" d="M92.8,1.1C92.2,1,91.6,1,91,1c-5.2,0-9.5,4.1-9.5,9.3c0,3.4,1.9,6.4,4.7,8c0,0,0.1,0,0.1,0.1
				c0.5,0.3,0.9,0.9,0.9,1.6c0,0.2,0,0.3-0.1,0.5c0,0,0,0,0,0l-1,3.5l0,0c0,0,0,0.1,0,0.1c0,0.3,0.2,0.5,0.5,0.5
				c0.1,0,0.2,0,0.3-0.1l0,0l9.3-6.5c2.5-1.7,4.2-4.5,4.2-7.7C100.4,5.7,97.2,2,92.8,1.1z"/>
		</g>
	</g>
</g>
</svg>
