<?xml version="1.0" encoding="utf-8"?>
<!-- Generator: Adobe Illustrator 22.0.1, SVG Export Plug-In . SVG Version: 6.00 Build 0)  -->
<svg version="1.1" id="Layer_1" xmlns="http://www.w3.org/2000/svg" xmlns:xlink="http://www.w3.org/1999/xlink" x="0px" y="0px"
	 viewBox="0 0 119.3 146.7" style="enable-background:new 0 0 119.3 146.7;" xml:space="preserve">
<style type="text/css">
	.st0{fill:#01A0C6;}
	.st1{fill:#FFFFFF;}
</style>
<g>
	<path class="st0" d="M31.9,144.6c-0.3,0.2-0.6,0.3-0.9,0.3c-0.4,0-0.8-0.1-1.2-0.3c-0.6-0.4-1.1-1.2-0.9-1.7
		c0.9-3,4.7-15.6,6.6-21.9c0-0.1,0.1-0.2,0.1-0.2c0.3-0.9,0.4-1.9,0.4-2.9c0-0.2,0-0.4,0-0.5c-0.2-3.2-1.8-6-4.2-7.8
		c-0.4-0.3-0.7-0.5-1.1-0.7c0,0-0.1,0-0.1,0C10.9,97.8-0.9,75.9,1.1,53.3c1.3-15.3,8.5-29.1,20.1-39C32.9,4.5,47.7-0.2,62.8,1.1
		C78,2.4,91.7,9.6,101.5,21.4c9.8,11.7,14.4,26.6,13.1,41.9c-1,11.6-5.4,22.4-12.7,31.4c-3.2,3.9-6.9,7.4-11,10.3L31.9,144.6z"/>
	<g>
		<g>
			<path class="st1" d="M40.2,38.7V28.6c1.7-0.6,3.1-0.9,4.2-0.9c1.1,0,2.1,0.3,2.8,0.9c0.8,0.6,1.2,1.5,1.2,2.6v7.4h-1.6v-7.5
				c0-0.6-0.2-1.1-0.7-1.4c-0.5-0.3-1-0.5-1.7-0.5c-0.8,0-1.7,0.2-2.5,0.5v9H40.2z"/>
			<path class="st1" d="M52.3,34.2v1.3c0,0.6,0.2,1.1,0.7,1.4c0.5,0.3,1.1,0.5,1.8,0.5c0.5,0,1-0.1,1.5-0.4c0.4-0.2,0.8-0.6,1-1.1
				l1.4,0.6c-0.4,0.8-0.9,1.3-1.6,1.8c-0.7,0.4-1.5,0.6-2.3,0.6c-1.1,0-2.1-0.3-2.9-0.9c-0.8-0.6-1.2-1.5-1.2-2.6v-4
				c0-1.1,0.4-2,1.2-2.6s1.8-0.9,2.9-0.9c1.1,0,2.1,0.3,2.9,0.9s1.2,1.5,1.2,2.6v2.8H52.3z M57.3,32.8v-1.5c0-0.6-0.3-1.1-0.8-1.4
				c-0.5-0.4-1.1-0.5-1.8-0.5c-0.7,0-1.3,0.2-1.8,0.5s-0.7,0.8-0.7,1.5v1.5H57.3z"/>
			<path class="st1" d="M68.6,29.9l-1.3,0.8c-0.3-0.5-0.7-0.8-1.1-1c-0.4-0.2-0.9-0.2-1.5-0.2c-0.7,0-1.3,0.2-1.7,0.5
				c-0.5,0.3-0.7,0.8-0.7,1.4v4c0,0.6,0.2,1.1,0.7,1.5s1.1,0.5,1.8,0.5c1.3,0,2.2-0.6,2.7-1.7l1.3,0.6c-0.3,0.8-0.8,1.5-1.6,2
				c-0.7,0.5-1.6,0.7-2.4,0.7c-1.1,0-2.1-0.3-2.9-0.9c-0.8-0.6-1.2-1.5-1.2-2.6v-4c0-1.1,0.4-2,1.2-2.6c0.8-0.6,1.8-0.9,2.9-0.9
				c0.8,0,1.5,0.2,2.2,0.5C67.6,28.5,68.1,29.1,68.6,29.9z"/>
			<path class="st1" d="M71.9,34.2v1.3c0,0.6,0.2,1.1,0.7,1.4c0.5,0.3,1.1,0.5,1.8,0.5c0.5,0,1-0.1,1.5-0.4c0.4-0.2,0.8-0.6,1-1.1
				l1.4,0.6c-0.4,0.8-0.9,1.3-1.6,1.8c-0.7,0.4-1.5,0.6-2.3,0.6c-1.1,0-2.1-0.3-2.9-0.9c-0.8-0.6-1.2-1.5-1.2-2.6v-4
				c0-1.1,0.4-2,1.2-2.6s1.8-0.9,2.9-0.9c1.1,0,2.1,0.3,2.9,0.9s1.2,1.5,1.2,2.6v2.8H71.9z M76.9,32.8v-1.5c0-0.6-0.3-1.1-0.8-1.4
				c-0.5-0.4-1.1-0.5-1.8-0.5c-0.7,0-1.3,0.2-1.8,0.5s-0.7,0.8-0.7,1.5v1.5H76.9z"/>
			<path class="st1" d="M39.5,56.9l1.2-0.9c0.3,0.5,0.8,0.9,1.3,1.2s1.1,0.4,1.7,0.4c0.5,0,1-0.2,1.4-0.5c0.4-0.3,0.6-0.7,0.6-1.2
				c0-0.2,0-0.4-0.1-0.6c-0.1-0.2-0.2-0.3-0.3-0.4c-0.1-0.1-0.3-0.2-0.5-0.3c-0.2-0.1-0.4-0.1-0.6-0.2c-0.2,0-0.4-0.1-0.6-0.1
				c-0.5-0.1-1-0.2-1.4-0.3c-0.4-0.1-0.8-0.3-1.2-0.5s-0.7-0.5-0.9-0.9c-0.2-0.4-0.3-0.9-0.3-1.4c0-1,0.4-1.8,1.2-2.4
				c0.8-0.5,1.7-0.8,2.7-0.8c1.3,0,2.4,0.4,3.2,1.3l-1,1.2c-0.6-0.6-1.3-0.9-2.2-0.9c-0.6,0-1.1,0.1-1.5,0.4
				c-0.5,0.3-0.7,0.7-0.7,1.2c0,0.3,0.1,0.5,0.2,0.7s0.4,0.4,0.7,0.5c0.3,0.1,0.5,0.2,0.7,0.2c0.2,0,0.4,0.1,0.8,0.2
				c1,0.2,1.8,0.5,2.5,1c0.6,0.5,1,1.2,1,2.2c0,1-0.4,1.8-1.1,2.4c-0.7,0.6-1.6,0.9-2.5,0.9C41.9,59.1,40.4,58.4,39.5,56.9z"/>
			<path class="st1" d="M49,45.1c0-0.3,0.1-0.6,0.3-0.8c0.2-0.2,0.5-0.3,0.8-0.3c0.3,0,0.6,0.1,0.8,0.3c0.2,0.2,0.3,0.5,0.3,0.8
				c0,0.3-0.1,0.6-0.3,0.8c-0.2,0.2-0.5,0.3-0.8,0.3c-0.3,0-0.6-0.1-0.8-0.3C49.1,45.7,49,45.5,49,45.1z M49.4,48.1H51v10.8h-1.7
				V48.1z"/>
			<path class="st1" d="M58,57.6v1.4c-0.3,0-0.5,0-0.6,0c-1.1,0-2-0.3-2.7-1c-0.7-0.6-1-1.5-1-2.6V45.4h1.6v2.7h2.2v1.5h-2.2v5.9
				c0,0.7,0.3,1.2,0.8,1.6C56.5,57.6,57.1,57.8,58,57.6z"/>
			<path class="st1" d="M59.2,55.5v-4c0-1.1,0.4-2,1.2-2.6c0.8-0.6,1.8-1,2.9-1c1.1,0,2.1,0.3,2.9,1c0.8,0.6,1.2,1.5,1.2,2.6v4
				c0,1.1-0.4,2-1.2,2.6s-1.8,0.9-2.9,1c-1.1,0-2.1-0.3-2.9-1S59.2,56.6,59.2,55.5z M63.3,49.5c-0.7,0-1.2,0.2-1.7,0.5
				c-0.5,0.3-0.8,0.8-0.8,1.5v4c0,0.6,0.3,1.1,0.8,1.5s1.1,0.5,1.7,0.5c0.6,0,1.2-0.2,1.7-0.5s0.7-0.8,0.7-1.5v-4
				c0-0.6-0.2-1.1-0.7-1.5C64.5,49.7,64,49.5,63.3,49.5z"/>
			<path class="st1" d="M46.2,73v-1.4c0-0.6-0.2-1.1-0.7-1.4s-1.1-0.5-1.8-0.5c-1.1,0-2,0.4-2.6,1.2l-1-1c0.5-0.5,1.1-1,1.7-1.2
				s1.4-0.4,2.1-0.4c1.1,0,2,0.3,2.8,0.9s1.2,1.5,1.2,2.6v7c-1.4,0.5-2.9,0.8-4.4,0.7c-1.1,0-2.1-0.3-2.8-0.9
				c-0.7-0.6-1.1-1.4-1.1-2.5c0-1.1,0.4-2,1.2-2.6c0.8-0.6,1.7-0.9,2.9-0.9C44.5,72.5,45.4,72.7,46.2,73z M46.2,77.7v-3.4
				c-0.8-0.3-1.6-0.4-2.4-0.4c-0.7,0-1.3,0.2-1.8,0.5c-0.5,0.3-0.7,0.9-0.7,1.6c0,0.7,0.2,1.1,0.6,1.5c0.4,0.3,0.9,0.5,1.6,0.5
				C44.5,77.9,45.4,77.8,46.2,77.7z"/>
			<path class="st1" d="M50.6,81.4l1.1-1c0.3,0.3,0.7,0.6,1.1,0.8c0.5,0.2,1,0.3,1.5,0.3c0.7,0,1.4-0.2,1.9-0.5s0.8-0.8,0.8-1.5
				v-0.8c-0.6,0.4-1.5,0.6-2.6,0.7c-1.1,0-2.1-0.3-3-1c-0.8-0.7-1.3-1.6-1.3-2.7v-7.3h1.7v7.3c0,0.6,0.3,1.1,0.8,1.5
				c0.5,0.4,1.1,0.6,1.7,0.6c0.9,0,1.7-0.2,2.6-0.5v-8.8h1.7v11.1c0,1.2-0.4,2.1-1.2,2.7c-0.8,0.6-1.8,0.9-3,0.9
				c-0.7,0-1.4-0.1-2.1-0.4C51.7,82.3,51.1,81.9,50.6,81.4z"/>
			<path class="st1" d="M69.4,68.3v10.2c-1.5,0.5-2.9,0.8-4.2,0.8c-1.1,0-2-0.3-2.8-1c-0.8-0.6-1.2-1.5-1.2-2.6v-7.4h1.7v7.4
				c0,0.6,0.2,1.1,0.7,1.4c0.5,0.4,1,0.5,1.7,0.5c1,0,1.8-0.1,2.5-0.4v-9H69.4z"/>
			<path class="st1" d="M48.2,84.7v14c-1.5,0.5-2.9,0.8-4.2,0.8c-1.1,0-2.1-0.3-2.9-1s-1.2-1.5-1.2-2.6v-4c0-1.1,0.4-2,1.2-2.6
				c0.8-0.6,1.8-1,2.9-1c1,0,1.8,0.2,2.5,0.7v-4.3H48.2z M44,98c1,0,1.9-0.1,2.5-0.3v-7.3c-0.8-0.4-1.6-0.6-2.5-0.6
				c-0.7,0-1.3,0.2-1.7,0.6c-0.5,0.4-0.7,0.9-0.7,1.6v4c0,0.6,0.2,1.1,0.7,1.5S43.4,98,44,98z"/>
			<path class="st1" d="M56.7,93.2v-1.4c0-0.6-0.2-1.1-0.7-1.4s-1.1-0.5-1.8-0.5c-1.1,0-2,0.4-2.6,1.2l-1-1c0.5-0.5,1.1-1,1.7-1.2
				s1.4-0.4,2.1-0.4c1.1,0,2,0.3,2.8,0.9s1.2,1.5,1.2,2.6v7c-1.4,0.5-2.9,0.8-4.4,0.7c-1.1,0-2.1-0.3-2.8-0.9
				c-0.7-0.6-1.1-1.4-1.1-2.5c0-1.1,0.4-2,1.2-2.6c0.8-0.6,1.7-0.9,2.9-0.9C55,92.7,55.9,92.8,56.7,93.2z M56.7,97.8v-3.4
				c-0.8-0.3-1.6-0.4-2.4-0.4c-0.7,0-1.3,0.2-1.8,0.5c-0.5,0.3-0.7,0.9-0.7,1.6c0,0.7,0.2,1.1,0.6,1.5c0.4,0.3,0.9,0.5,1.6,0.5
				C55,98.1,55.9,98,56.7,97.8z"/>
		</g>
	</g>
</g>
</svg>
