<?xml version="1.0" encoding="utf-8"?>
<!-- Generator: Adobe Illustrator 22.0.1, SVG Export Plug-In . SVG Version: 6.00 Build 0)  -->
<svg version="1.1" id="Layer_1" xmlns="http://www.w3.org/2000/svg" xmlns:xlink="http://www.w3.org/1999/xlink" x="0px" y="0px"
	 viewBox="0 0 119.3 146.7" style="enable-background:new 0 0 119.3 146.7;" xml:space="preserve">
<style type="text/css">
	.st0{fill:#931787;}
	.st1{fill:#FFFFFF;}
</style>
<g>
	<path class="st0" d="M31.8,144.3c-0.3,0.2-0.6,0.3-0.9,0.3c-0.4,0-0.8-0.1-1.2-0.3c-0.6-0.4-1.1-1.2-0.9-1.7
		c0.9-3,4.7-15.6,6.6-21.9c0-0.1,0.1-0.2,0.1-0.2c0.3-0.9,0.4-1.9,0.4-2.9c0-0.2,0-0.4,0-0.5c-0.2-3.2-1.8-6-4.2-7.8
		c-0.4-0.3-0.7-0.5-1.1-0.7c0,0-0.1,0-0.1,0C10.8,97.6-1,75.7,1,53c1.3-15.3,8.5-29.1,20.1-39C32.8,4.2,47.6-0.5,62.8,0.9
		c15.2,1.3,28.9,8.5,38.7,20.3c9.8,11.7,14.4,26.6,13.1,41.9c-1,11.6-5.4,22.4-12.7,31.4c-3.2,3.9-6.9,7.4-11,10.3L31.8,144.3z"/>
	<g>
		<g>
			<path class="st1" d="M44.4,36.5V26.4c1.7-0.6,3.1-0.9,4.2-0.9c1.1,0,2.1,0.3,2.8,0.9c0.8,0.6,1.2,1.5,1.2,2.6v7.4H51V29
				c0-0.6-0.2-1.1-0.7-1.4c-0.5-0.3-1-0.5-1.7-0.5c-0.8,0-1.7,0.2-2.5,0.5v9H44.4z"/>
			<path class="st1" d="M54.8,33.1v-4c0-1.1,0.4-2,1.2-2.6s1.8-1,2.9-1c1.1,0,2.1,0.3,2.9,1s1.2,1.5,1.2,2.6v4c0,1.1-0.4,2-1.2,2.6
				s-1.8,0.9-2.9,1c-1.1,0-2.1-0.3-2.9-1S54.8,34.2,54.8,33.1z M59,27.1c-0.7,0-1.2,0.2-1.7,0.5c-0.5,0.3-0.8,0.8-0.8,1.5v4
				c0,0.6,0.3,1.1,0.8,1.5s1.1,0.5,1.7,0.5c0.6,0,1.2-0.2,1.7-0.5s0.7-0.8,0.7-1.5v-4c0-0.6-0.2-1.1-0.7-1.5S59.6,27.1,59,27.1z"/>
			<path class="st1" d="M43.7,54.6l1.2-0.9c0.3,0.5,0.8,0.9,1.3,1.2s1.1,0.4,1.7,0.4c0.5,0,1-0.2,1.4-0.5c0.4-0.3,0.6-0.7,0.6-1.2
				c0-0.2,0-0.4-0.1-0.6c-0.1-0.2-0.2-0.3-0.3-0.4c-0.1-0.1-0.3-0.2-0.5-0.3c-0.2-0.1-0.4-0.1-0.6-0.2s-0.4-0.1-0.6-0.1
				c-0.5-0.1-1-0.2-1.4-0.3s-0.8-0.3-1.2-0.5c-0.4-0.2-0.7-0.5-0.9-0.9c-0.2-0.4-0.3-0.9-0.3-1.4c0-1,0.4-1.8,1.2-2.4
				c0.8-0.5,1.7-0.8,2.7-0.8c1.3,0,2.4,0.4,3.2,1.3l-1,1.2c-0.6-0.6-1.3-0.9-2.2-0.9c-0.6,0-1.1,0.1-1.5,0.4
				c-0.5,0.3-0.7,0.7-0.7,1.2c0,0.3,0.1,0.5,0.2,0.7c0.1,0.2,0.4,0.4,0.7,0.5c0.3,0.1,0.5,0.2,0.7,0.2c0.2,0,0.4,0.1,0.8,0.2
				c1,0.2,1.8,0.5,2.5,1c0.6,0.5,1,1.2,1,2.2c0,1-0.4,1.8-1.1,2.4c-0.7,0.6-1.6,0.9-2.5,0.9C46.1,56.9,44.7,56.1,43.7,54.6z"/>
			<path class="st1" d="M53.3,53.3v-4c0-1.1,0.4-2,1.2-2.6s1.8-1,2.9-1c1.1,0,2.1,0.3,2.9,1s1.2,1.5,1.2,2.6v4c0,1.1-0.4,2-1.2,2.6
				s-1.8,0.9-2.9,1c-1.1,0-2.1-0.3-2.9-1S53.3,54.4,53.3,53.3z M57.4,47.3c-0.7,0-1.2,0.2-1.7,0.5c-0.5,0.3-0.8,0.8-0.8,1.5v4
				c0,0.6,0.3,1.1,0.8,1.5s1.1,0.5,1.7,0.5c0.6,0,1.2-0.2,1.7-0.5s0.7-0.8,0.7-1.5v-4c0-0.6-0.2-1.1-0.7-1.5S58,47.3,57.4,47.3z"/>
			<path class="st1" d="M64.1,59l1.1-1c0.3,0.3,0.7,0.6,1.1,0.8s1,0.3,1.5,0.3c0.7,0,1.4-0.2,1.9-0.5c0.5-0.3,0.8-0.8,0.8-1.5v-0.8
				c-0.6,0.4-1.5,0.6-2.6,0.7c-1.1,0-2.1-0.3-3-1c-0.8-0.7-1.3-1.6-1.3-2.7v-7.3h1.7v7.3c0,0.6,0.3,1.1,0.8,1.5s1.1,0.6,1.7,0.6
				c0.9,0,1.7-0.2,2.6-0.5v-8.8h1.7V57c0,1.2-0.4,2.1-1.2,2.7c-0.8,0.6-1.8,0.9-3,0.9c-0.7,0-1.4-0.1-2.1-0.4
				C65.2,59.9,64.6,59.5,64.1,59z"/>
			<path class="st1" d="M52.1,68l-1.3,0.8c-0.3-0.5-0.7-0.8-1.1-1c-0.4-0.2-0.9-0.2-1.5-0.2c-0.7,0-1.3,0.2-1.7,0.5
				c-0.5,0.3-0.7,0.8-0.7,1.4v4c0,0.6,0.2,1.1,0.7,1.5s1.1,0.5,1.8,0.5c1.3,0,2.2-0.6,2.7-1.7l1.3,0.6c-0.3,0.8-0.8,1.5-1.6,2
				c-0.7,0.5-1.6,0.7-2.4,0.7c-1.1,0-2.1-0.3-2.9-0.9c-0.8-0.6-1.2-1.5-1.2-2.6v-4c0-1.1,0.4-2,1.2-2.6c0.8-0.6,1.8-0.9,2.9-0.9
				c0.8,0,1.5,0.2,2.2,0.5C51,66.6,51.6,67.2,52.1,68z"/>
			<path class="st1" d="M57.6,75.5V77c-1.2,0-2-0.3-2.7-0.9S54,74.6,54,73.5V62.3h1.7v11.2c0,0.6,0.2,1.1,0.5,1.4
				C56.4,75.3,56.9,75.5,57.6,75.5z"/>
			<path class="st1" d="M58.7,63.1c0-0.3,0.1-0.6,0.3-0.8c0.2-0.2,0.5-0.3,0.8-0.3c0.3,0,0.6,0.1,0.8,0.3c0.2,0.2,0.3,0.5,0.3,0.8
				c0,0.3-0.1,0.6-0.3,0.8c-0.2,0.2-0.5,0.3-0.8,0.3c-0.3,0-0.6-0.1-0.8-0.3C58.8,63.7,58.7,63.4,58.7,63.1z M59,66.1h1.7v10.8H59
				V66.1z"/>
			<path class="st1" d="M64.7,72.3v1.3c0,0.6,0.2,1.1,0.7,1.4c0.5,0.3,1.1,0.5,1.8,0.5c0.5,0,1-0.1,1.5-0.4c0.4-0.2,0.8-0.6,1-1.1
				l1.4,0.6c-0.4,0.8-0.9,1.3-1.6,1.8c-0.7,0.4-1.5,0.6-2.3,0.6c-1.1,0-2.1-0.3-2.9-0.9c-0.8-0.6-1.2-1.5-1.2-2.6v-4
				c0-1.1,0.4-2,1.2-2.6s1.8-0.9,2.9-0.9c1.1,0,2.1,0.3,2.9,0.9s1.2,1.5,1.2,2.6v2.8H64.7z M69.7,70.9v-1.5c0-0.6-0.3-1.1-0.8-1.4
				c-0.5-0.4-1.1-0.5-1.8-0.5c-0.7,0-1.3,0.2-1.8,0.5s-0.7,0.8-0.7,1.5v1.5H69.7z"/>
			<path class="st1" d="M73.3,76.8V66.8c1.7-0.6,3.1-0.9,4.2-0.9c1.1,0,2.1,0.3,2.8,0.9c0.8,0.6,1.2,1.5,1.2,2.6v7.4h-1.6v-7.5
				c0-0.6-0.2-1.1-0.7-1.4c-0.5-0.3-1-0.5-1.7-0.5c-0.8,0-1.7,0.2-2.5,0.5v9H73.3z"/>
			<path class="st1" d="M48.8,95.7v1.4c-0.3,0-0.5,0-0.6,0c-1.1,0-2-0.3-2.7-1c-0.7-0.6-1-1.5-1-2.6V83.5H46v2.7h2.2v1.5H46v5.9
				c0,0.7,0.3,1.2,0.8,1.6C47.3,95.8,47.9,95.9,48.8,95.7z"/>
			<path class="st1" d="M51.7,92.5v1.3c0,0.6,0.2,1.1,0.7,1.4c0.5,0.3,1.1,0.5,1.8,0.5c0.5,0,1-0.1,1.5-0.4c0.4-0.2,0.8-0.6,1-1.1
				l1.4,0.6c-0.4,0.8-0.9,1.3-1.6,1.8c-0.7,0.4-1.5,0.6-2.3,0.6c-1.1,0-2.1-0.3-2.9-0.9S50,94.8,50,93.6v-4c0-1.1,0.4-2,1.2-2.6
				S53,86,54.1,86c1.1,0,2.1,0.3,2.9,0.9s1.2,1.5,1.2,2.6v2.8H51.7z M56.7,91.1v-1.5c0-0.6-0.3-1.1-0.8-1.4
				c-0.5-0.4-1.1-0.5-1.8-0.5c-0.7,0-1.3,0.2-1.8,0.5s-0.7,0.8-0.7,1.5v1.5H56.7z"/>
		</g>
	</g>
</g>
</svg>
