<?xml version="1.0" encoding="utf-8"?>
<!-- Generator: Adobe Illustrator 22.0.1, SVG Export Plug-In . SVG Version: 6.00 Build 0)  -->
<svg version="1.1" id="Layer_1" xmlns="http://www.w3.org/2000/svg" xmlns:xlink="http://www.w3.org/1999/xlink" x="0px" y="0px"
	 viewBox="0 0 119.3 146.7" style="enable-background:new 0 0 119.3 146.7;" xml:space="preserve">
<style type="text/css">
	.st0{fill:#69C4B4;}
	.st1{fill:#FFFFFF;}
</style>
<g>
	<path class="st0" d="M31.9,144.7c-0.3,0.2-0.6,0.3-0.9,0.3c-0.4,0-0.8-0.1-1.2-0.3c-0.6-0.4-1.1-1.2-0.9-1.7
		c0.9-3,4.7-15.6,6.6-21.9c0-0.1,0.1-0.2,0.1-0.2c0.3-0.9,0.4-1.9,0.4-2.9c0-0.2,0-0.4,0-0.5c-0.2-3.2-1.8-6-4.2-7.8
		c-0.4-0.3-0.7-0.5-1.1-0.7c0,0-0.1,0-0.1,0C10.9,97.9-0.9,76,1.1,53.4c1.3-15.3,8.5-29.1,20.1-39C32.9,4.6,47.7-0.1,62.8,1.2
		C78,2.6,91.7,9.8,101.5,21.5c9.8,11.7,14.4,26.6,13.1,41.9c-1,11.6-5.4,22.4-12.7,31.4c-3.2,3.9-6.9,7.4-11,10.3L31.9,144.7z"/>
	<g>
		<g>
			<path class="st1" d="M41.5,45.7l1.2-0.9c0.3,0.5,0.8,0.9,1.3,1.2s1.1,0.4,1.7,0.4c0.5,0,1-0.2,1.4-0.5c0.4-0.3,0.6-0.7,0.6-1.2
				c0-0.2,0-0.4-0.1-0.6c-0.1-0.2-0.2-0.3-0.3-0.4c-0.1-0.1-0.3-0.2-0.5-0.3c-0.2-0.1-0.4-0.1-0.6-0.2c-0.2,0-0.4-0.1-0.6-0.1
				c-0.5-0.1-1-0.2-1.4-0.3c-0.4-0.1-0.8-0.3-1.2-0.5s-0.7-0.5-0.9-0.9c-0.2-0.4-0.3-0.9-0.3-1.4c0-1,0.4-1.8,1.2-2.4
				c0.8-0.5,1.7-0.8,2.7-0.8c1.3,0,2.4,0.4,3.2,1.3l-1,1.2c-0.6-0.6-1.3-0.9-2.2-0.9c-0.6,0-1.1,0.1-1.5,0.4
				c-0.5,0.3-0.7,0.7-0.7,1.2c0,0.3,0.1,0.5,0.2,0.7s0.4,0.4,0.7,0.5c0.3,0.1,0.5,0.2,0.7,0.2c0.2,0,0.4,0.1,0.8,0.2
				c1,0.2,1.8,0.5,2.5,1c0.6,0.5,1,1.2,1,2.2c0,1-0.4,1.8-1.1,2.4c-0.7,0.6-1.6,0.9-2.5,0.9C43.8,47.9,42.4,47.2,41.5,45.7z"/>
			<path class="st1" d="M51,44.4v-4c0-1.1,0.4-2,1.2-2.6c0.8-0.6,1.8-1,2.9-1c1.1,0,2.1,0.3,2.9,1c0.8,0.6,1.2,1.5,1.2,2.6v4
				c0,1.1-0.4,2-1.2,2.6s-1.8,0.9-2.9,1c-1.1,0-2.1-0.3-2.9-1S51,45.5,51,44.4z M55.2,38.3c-0.7,0-1.2,0.2-1.7,0.5
				c-0.5,0.3-0.8,0.8-0.8,1.5v4c0,0.6,0.3,1.1,0.8,1.5s1.1,0.5,1.7,0.5c0.6,0,1.2-0.2,1.7-0.5s0.7-0.8,0.7-1.5v-4
				c0-0.6-0.2-1.1-0.7-1.5C56.4,38.5,55.8,38.3,55.2,38.3z"/>
			<path class="st1" d="M61.9,50.1l1.1-1c0.3,0.3,0.7,0.6,1.1,0.8c0.5,0.2,1,0.3,1.5,0.3c0.7,0,1.4-0.2,1.9-0.5s0.8-0.8,0.8-1.5
				v-0.8c-0.6,0.4-1.5,0.6-2.6,0.7c-1.1,0-2.1-0.3-3-1c-0.8-0.7-1.3-1.6-1.3-2.7V37h1.7v7.3c0,0.6,0.3,1.1,0.8,1.5
				c0.5,0.4,1.1,0.6,1.7,0.6c0.9,0,1.7-0.2,2.6-0.5V37h1.7v11.1c0,1.2-0.4,2.1-1.2,2.7c-0.8,0.6-1.8,0.9-3,0.9
				c-0.7,0-1.4-0.1-2.1-0.4C62.9,51,62.3,50.6,61.9,50.1z"/>
			<path class="st1" d="M49.8,59.1l-1.3,0.8c-0.3-0.5-0.7-0.8-1.1-1c-0.4-0.2-0.9-0.2-1.5-0.2c-0.7,0-1.3,0.2-1.7,0.5
				s-0.7,0.8-0.7,1.4v4c0,0.6,0.2,1.1,0.7,1.5s1.1,0.5,1.8,0.5c1.3,0,2.2-0.6,2.7-1.7l1.3,0.6c-0.3,0.8-0.8,1.5-1.6,2
				c-0.7,0.5-1.6,0.7-2.4,0.7c-1.1,0-2.1-0.3-2.9-0.9s-1.2-1.5-1.2-2.6v-4c0-1.1,0.4-2,1.2-2.6s1.8-0.9,2.9-0.9
				c0.8,0,1.5,0.2,2.2,0.5C48.8,57.7,49.3,58.3,49.8,59.1z"/>
			<path class="st1" d="M55.3,66.6v1.6c-1.2,0-2-0.3-2.7-0.9c-0.6-0.6-0.9-1.5-0.9-2.6V53.4h1.7v11.2c0,0.6,0.2,1.1,0.5,1.4
				C54.2,66.4,54.7,66.6,55.3,66.6z"/>
			<path class="st1" d="M56.4,54.2c0-0.3,0.1-0.6,0.3-0.8c0.2-0.2,0.5-0.3,0.8-0.3c0.3,0,0.6,0.1,0.8,0.3c0.2,0.2,0.3,0.5,0.3,0.8
				c0,0.3-0.1,0.6-0.3,0.8c-0.2,0.2-0.5,0.3-0.8,0.3c-0.3,0-0.6-0.1-0.8-0.3C56.5,54.8,56.4,54.5,56.4,54.2z M56.8,57.2h1.7v10.8
				h-1.7V57.2z"/>
			<path class="st1" d="M62.4,63.4v1.3c0,0.6,0.2,1.1,0.7,1.4c0.5,0.3,1.1,0.5,1.8,0.5c0.5,0,1-0.1,1.5-0.4c0.4-0.2,0.8-0.6,1-1.1
				l1.4,0.6c-0.4,0.8-0.9,1.3-1.6,1.8c-0.7,0.4-1.5,0.6-2.3,0.6c-1.1,0-2.1-0.3-2.9-0.9s-1.2-1.5-1.2-2.6v-4c0-1.1,0.4-2,1.2-2.6
				s1.8-0.9,2.9-0.9c1.1,0,2.1,0.3,2.9,0.9s1.2,1.5,1.2,2.6v2.8H62.4z M67.4,62v-1.5c0-0.6-0.3-1.1-0.8-1.4s-1.1-0.5-1.8-0.5
				c-0.7,0-1.3,0.2-1.8,0.5c-0.5,0.4-0.7,0.8-0.7,1.5V62H67.4z"/>
			<path class="st1" d="M71.1,67.9V57.8c1.7-0.6,3.1-0.9,4.2-0.9c1.1,0,2.1,0.3,2.8,0.9c0.8,0.6,1.2,1.5,1.2,2.6v7.4h-1.6v-7.5
				c0-0.6-0.2-1.1-0.7-1.4c-0.5-0.3-1-0.5-1.7-0.5c-0.8,0-1.7,0.2-2.5,0.5v9H71.1z"/>
			<path class="st1" d="M50.8,86.8v1.4c-0.3,0-0.5,0-0.6,0c-1.1,0-2-0.3-2.7-1c-0.7-0.6-1-1.5-1-2.6V74.6h1.6v2.7h2.2v1.5h-2.2v5.9
				c0,0.7,0.3,1.2,0.8,1.6C49.4,86.8,50,87,50.8,86.8z"/>
			<path class="st1" d="M53.8,83.5v1.3c0,0.6,0.2,1.1,0.7,1.4c0.5,0.3,1.1,0.5,1.8,0.5c0.5,0,1-0.1,1.5-0.4c0.4-0.2,0.8-0.6,1-1.1
				l1.4,0.6c-0.4,0.8-0.9,1.3-1.6,1.8c-0.7,0.4-1.5,0.6-2.3,0.6c-1.1,0-2.1-0.3-2.9-0.9s-1.2-1.5-1.2-2.6v-4c0-1.1,0.4-2,1.2-2.6
				s1.8-0.9,2.9-0.9c1.1,0,2.1,0.3,2.9,0.9s1.2,1.5,1.2,2.6v2.8H53.8z M58.7,82.1v-1.5c0-0.6-0.3-1.1-0.8-1.4s-1.1-0.5-1.8-0.5
				c-0.7,0-1.3,0.2-1.8,0.5c-0.5,0.4-0.7,0.8-0.7,1.5v1.5H58.7z"/>
		</g>
	</g>
</g>
</svg>
